# Blender v2.91.0 OBJ File: '0129 ggj exporting.blend'
# www.blender.org
mtllib rock A.mtl
o large_rock_1_Cube.005
v -0.121278 0.923144 -1.293752
v -0.892498 0.832295 -0.944097
v 0.648760 0.290770 1.094772
v 1.185223 0.411613 0.584572
v -1.349638 0.644225 -0.271989
v -1.348013 0.461046 0.436341
v 1.119612 0.654898 -0.313259
v 0.688742 0.929960 -0.996875
v -0.107869 0.009872 0.137268
v 1.039046 0.009872 1.286588
v -0.478796 0.009872 1.702984
v -1.438357 0.009872 0.575188
v -0.312688 0.009872 -1.413346
v 1.456832 0.009872 -0.775473
v 0.306878 0.490616 1.234905
v -1.152120 0.598699 0.771021
v -0.815763 0.967117 -0.579648
v 0.495348 1.019430 -0.791784
v 1.121163 0.607052 0.557873
v -0.102361 0.229520 1.331620
v -0.855724 0.289095 1.101252
v 0.028725 0.616935 0.741774
v 0.825177 0.797696 0.183290
v -0.654263 0.957816 -0.026380
v -0.925621 1.053049 -0.401366
v 0.431973 1.000030 -0.626325
v 0.022781 0.868872 0.538453
v -0.446925 1.068299 -0.076271
v -0.764018 1.096208 -0.269574
v 0.381233 1.122791 -0.527987
v 0.589226 0.932593 0.098598
v -0.179281 0.652547 -1.436599
v 1.098479 0.525588 -0.969853
v 1.336303 0.009872 0.400900
v 1.325771 0.404742 -0.487290
v -0.938414 0.009872 -0.307980
v -0.594006 0.515580 -1.215200
v -0.646782 0.539025 -1.111400
v 1.005158 0.555280 -0.905668
v -0.175057 0.668948 -1.350711
v 1.232335 0.009872 0.620956
v 1.243904 0.421049 -0.483621
vt 0.773152 0.236929
vt 0.681904 0.236040
vt 0.636363 0.314921
vt 0.818181 0.314921
vt 0.501226 0.234067
vt 0.407663 0.233719
vt 0.454545 0.314921
vt 0.321440 0.230548
vt 0.272727 0.314921
vt 0.139919 0.230033
vt 0.043797 0.233320
vt 0.090909 0.314921
vt 0.863016 0.237264
vt 0.818181 0.000000
vt 0.727272 0.157461
vt 0.909090 0.157461
vt 0.636363 0.000000
vt 0.545454 0.157461
vt 0.648291 0.157461
vt 0.667250 0.157461
vt 0.090909 0.000000
vt 0.000000 0.157461
vt 0.181818 0.157461
vt 0.272727 0.000000
vt 0.262569 0.157461
vt 0.363636 0.157461
vt 0.454545 0.000000
vt 0.573697 0.206380
vt 0.590183 0.234935
vt 0.345421 0.189011
vt 0.526677 0.189984
vt 0.382328 0.189836
vt 0.389807 0.202791
vt 0.519446 0.202509
vt 0.952887 0.233320
vt 0.223148 0.229048
vt 0.567210 0.195143
vt 0.423295 0.369048
vt 0.215909 0.413334
vt 0.159091 0.433017
vt 0.761363 0.413334
vt 0.579545 0.413334
vt 1.000000 0.314921
vt 0.477272 0.354286
vt 0.590909 0.393651
vt 0.318182 0.393651
vt 0.431818 0.354286
vt 0.136363 0.393651
vt 0.227273 0.393651
vt 0.840908 0.354286
vt 0.954545 0.393651
vt 0.681818 0.393651
vt 0.795454 0.354286
vt 0.329545 0.413334
vt 0.485795 0.369048
vt 0.874999 0.413334
vt 0.931818 0.433017
vt 0.693181 0.413334
vt 0.337090 0.203440
vn 0.5724 0.3792 0.7270
vn 0.1063 0.9442 -0.3117
vn -0.1133 0.9788 -0.1704
vn -0.8120 -0.1880 0.5526
vn 0.3079 -0.1337 0.9420
vn 0.0000 -1.0000 -0.0000
vn 0.9686 0.2183 0.1191
vn 0.1679 0.7389 0.6526
vn -0.7148 0.3395 0.6114
vn -0.8356 -0.2795 -0.4730
vn 0.1677 0.9659 -0.1971
vn 0.3157 0.7937 0.5200
vn -0.0690 0.8877 0.4551
vn -0.9754 0.2129 0.0573
vn -0.4876 0.0697 -0.8703
vn 0.8351 0.4771 -0.2739
vn 0.0675 0.9703 0.2323
vn 0.4744 0.8788 0.0506
vn -0.1942 0.6120 0.7667
vn -0.5805 0.7958 -0.1722
vn 0.9495 0.3133 0.0155
vn -0.5323 0.8354 0.1373
vn 0.3928 0.9165 0.0756
vn -0.0335 0.9779 -0.2062
vn -0.5965 0.7805 0.1872
vn -0.0058 0.9363 0.3512
vn 0.0603 0.9498 0.3071
vn -0.0976 0.8290 -0.5507
vn 0.6646 0.7434 -0.0750
vn -0.4191 0.6948 0.5845
vn -0.4249 0.6651 0.6141
vn 0.3434 0.6895 0.6377
vn 0.3346 -0.1108 -0.9358
vn 0.2940 0.9487 0.1160
vn 0.9638 0.2478 0.0987
vn -0.8947 -0.1471 -0.4217
vn -0.4098 0.8659 -0.2868
vn -0.7466 -0.4271 -0.5100
vn -0.4483 0.1997 -0.8713
vn 0.3522 0.0964 -0.9309
vn 0.4704 0.8180 0.3311
vn 0.7691 0.5892 -0.2477
usemtl None
s off
f 3/1/1 4/2/1 19/3/1 15/4/1
f 8/5/2 1/6/2 18/7/2
f 1/6/3 2/8/3 17/9/3 18/7/3
f 6/10/4 21/11/4 16/12/4
f 20/13/5 3/1/5 15/4/5
f 9/14/6 10/15/6 11/16/6
f 10/15/6 9/17/6 14/18/6 34/19/6 41/20/6
f 9/21/6 11/22/6 12/23/6
f 9/24/6 12/23/6 36/25/6 13/26/6
f 9/27/6 13/26/6 14/18/6
f 10/15/7 41/20/7 42/28/7 7/29/7 4/2/7
f 11/16/8 10/15/8 3/1/8 20/13/8
f 12/23/9 11/22/9 21/11/9 6/10/9
f 13/26/10 36/25/10 37/30/10
f 33/31/11 32/32/11 40/33/11 39/34/11
f 10/15/12 4/2/12 3/1/12
f 11/16/13 20/13/13 21/35/13
f 12/23/14 6/10/14 5/36/14
f 13/26/15 37/30/15 32/32/15
f 14/18/16 33/31/16 35/37/16
f 30/38/17 29/39/17 28/40/17 27/41/17 31/42/17
f 7/29/18 8/5/18 18/7/18 19/3/18
f 21/35/19 20/13/19 15/4/19 16/43/19
f 2/8/20 5/36/20 17/9/20
f 4/2/21 7/29/21 19/3/21
f 5/36/22 6/10/22 16/12/22 17/9/22
f 19/3/23 18/7/23 26/44/23 23/45/23
f 18/7/24 17/9/24 25/46/24 26/47/24
f 17/9/25 16/12/25 24/48/25 25/49/25
f 16/43/26 15/4/26 22/50/26 24/51/26
f 15/4/27 19/3/27 23/52/27 22/53/27
f 26/47/28 25/46/28 29/54/28 30/38/28
f 23/45/29 26/44/29 30/55/29 31/42/29
f 25/49/30 24/48/30 28/40/30 29/39/30
f 24/51/31 22/50/31 27/56/31 28/57/31
f 22/53/32 23/52/32 31/58/32 27/41/32
f 14/18/33 13/26/33 32/32/33 33/31/33
f 35/37/34 33/31/34 39/34/34 42/28/34
f 35/37/35 34/19/35 14/18/35
f 37/30/36 36/25/36 38/59/36
f 32/32/37 37/30/37 38/59/37 40/33/37
f 38/59/38 36/25/38 12/23/38 5/36/38 2/8/38
f 40/33/39 38/59/39 2/8/39 1/6/39
f 39/34/40 40/33/40 1/6/40 8/5/40
f 42/28/41 41/20/41 34/19/41 35/37/41
f 42/28/42 39/34/42 8/5/42 7/29/42
