# Blender v2.91.0 OBJ File: '0129 ggj exporting.blend'
# www.blender.org
mtllib rock C.mtl
o rock_1_Cylinder
v 0.066895 0.000000 -0.962618
v -0.005251 0.776801 -0.670136
v 0.669820 0.000000 -0.664280
v 0.485864 0.609867 -0.537982
v 0.849823 0.000000 -0.028564
v 0.814604 0.311031 -0.016802
v 0.609680 0.000000 0.699170
v 0.429127 0.225271 0.651140
v 0.002241 0.000000 0.957391
v -0.086027 0.307064 0.761572
v -0.605104 0.000000 0.774809
v -0.561867 0.352922 0.597026
v -0.925581 0.000000 0.078993
v -0.659663 0.480577 0.113873
v -0.758040 0.000000 -0.598737
v -0.393232 0.711704 -0.460717
v -0.096130 0.870036 -0.516528
v 0.386028 0.810965 -0.492000
v 0.563139 0.452866 -0.022271
v 0.360296 0.293805 0.452361
v 0.082378 0.315384 0.517461
v -0.359534 0.386379 0.356447
v -0.501519 0.546871 0.063634
v -0.332795 0.794370 -0.391215
vt 1.000000 0.500000
vt 1.000000 1.000000
vt 0.875000 1.000000
vt 0.875000 0.500000
vt 0.750000 1.000000
vt 0.750000 0.500000
vt 0.625000 1.000000
vt 0.625000 0.500000
vt 0.500000 1.000000
vt 0.500000 0.500000
vt 0.375000 1.000000
vt 0.375000 0.500000
vt 0.250000 1.000000
vt 0.250000 0.500000
vt 0.625000 1.000000
vt 0.500000 1.000000
vt 0.125000 1.000000
vt 0.125000 0.500000
vt 0.000000 1.000000
vt 0.000000 0.500000
vt 0.750000 0.490000
vt 0.919706 0.419706
vt 0.990000 0.250000
vt 0.919706 0.080294
vt 0.750000 0.010000
vt 0.580294 0.080294
vt 0.510000 0.250000
vt 0.580294 0.419706
vt 0.419706 0.419706
vt 0.250000 0.490000
vt 0.080294 0.419706
vt 0.010000 0.250000
vt 0.080294 0.080294
vt 0.250000 0.010000
vt 0.419706 0.080294
vt 0.490000 0.250000
vt 0.250000 1.000000
vt 0.125000 1.000000
vt 0.875000 1.000000
vt 0.750000 1.000000
vt 0.375000 1.000000
vt 0.000000 1.000000
vt 1.000000 1.000000
vn 0.3888 0.3314 -0.8596
vn 0.9060 0.2651 -0.3299
vn 0.8409 0.3653 0.3994
vn 0.3007 0.5185 0.8005
vn -0.2526 0.4635 0.8493
vn -0.8589 0.3778 0.3456
vn 0.1711 0.9635 0.2057
vn -0.8522 0.4808 -0.2066
vn -0.4181 0.3273 -0.8474
vn 0.0000 -1.0000 0.0000
vn 0.0934 0.8760 0.4731
vn -0.5660 0.8127 0.1386
vn 0.7008 0.7049 0.1096
vn 0.0751 0.9869 0.1425
vn -0.4639 0.6638 -0.5866
vn 0.2658 0.6531 -0.7091
vn 0.3400 0.8683 0.3611
vn 0.0172 0.9390 0.3434
usemtl None
s off
f 1/1/1 2/2/1 4/3/1 3/4/1
f 3/4/2 4/3/2 6/5/2 5/6/2
f 5/6/3 6/5/3 8/7/3 7/8/3
f 7/8/4 8/7/4 10/9/4 9/10/4
f 9/10/5 10/9/5 12/11/5 11/12/5
f 11/12/6 12/11/6 14/13/6 13/14/6
f 10/9/7 8/7/7 20/15/7 21/16/7
f 13/14/8 14/13/8 16/17/8 15/18/8
f 15/18/9 16/17/9 2/19/9 1/20/9
f 1/21/10 3/22/10 5/23/10 7/24/10 9/25/10 11/26/10 13/27/10 15/28/10
f 18/29/11 17/30/11 24/31/11 23/32/11 22/33/11 21/34/11 20/35/11 19/36/11
f 16/17/12 14/13/12 23/37/12 24/38/12
f 6/5/13 4/3/13 18/39/13 19/40/13
f 12/11/14 10/9/14 21/16/14 22/41/14
f 2/19/15 16/17/15 24/38/15 17/42/15
f 4/3/16 2/2/16 17/43/16 18/39/16
f 8/7/17 6/5/17 19/40/17 20/15/17
f 14/13/18 12/11/18 22/41/18 23/37/18
