# Blender v2.91.0 OBJ File: '0129 ggj exporting.blend'
# www.blender.org
mtllib wall A.mtl
o wall_1_Cube.002
v 3.818485 11.409816 1.585044
v 2.656521 10.984026 1.994185
v 5.638878 0.000000 0.000000
v 5.638878 11.979428 0.000000
v 5.309065 0.000000 1.114341
v 5.488369 11.545287 0.545476
v 4.720767 0.000000 1.987978
v 4.896918 11.729737 0.863698
v 3.570005 0.000000 2.782731
v 4.019118 12.060491 0.963538
v 2.482667 0.000000 2.697970
v 2.980478 11.305319 1.145386
v 1.591514 0.000000 2.418072
v 1.595434 10.951615 1.021123
v 0.060017 0.000000 2.572164
v 0.041806 11.279022 1.083531
v -1.279383 0.000000 1.868522
v -1.884744 10.783110 1.268507
v -3.135869 0.000000 2.099064
v -2.842464 12.452538 1.567410
v -4.429211 0.000000 1.855485
v -3.852788 12.279742 1.392776
v -5.330812 0.000000 1.361463
v -5.023427 11.152917 1.093986
v -5.446735 0.000000 0.473953
v -5.709313 10.699938 0.660929
v -5.638875 0.000000 0.000000
v -5.638875 11.979428 0.000000
v 1.470796 10.734381 1.880049
v 5.638878 3.088098 0.000000
v -0.239855 10.479300 1.533150
v -1.678007 9.871809 1.682996
v -2.696104 9.523434 1.607894
v -3.605686 8.449651 1.407730
v -4.895614 9.344920 0.960543
v -5.446735 10.020193 0.473953
v -5.638875 10.020193 0.000000
v 5.638878 11.374451 0.000000
v -5.638875 3.088098 0.000000
v -5.466955 2.389736 0.557059
v -4.859258 2.065214 1.291722
v -3.674535 1.915098 1.870172
v -2.644526 2.351930 2.068463
v -1.459448 3.088098 1.768816
v 0.577295 4.010819 1.308408
v 1.450059 3.961446 1.615873
v 2.819439 3.088098 1.585878
v 3.788900 5.104030 1.768171
v 4.765380 5.208213 1.246539
v 5.446738 3.088098 0.473953
v 4.921280 11.273521 1.131190
v 5.334702 11.309404 0.772029
v 5.638878 7.101873 0.000000
v -5.638875 9.068702 0.000000
v -5.446735 9.068702 0.473953
v -4.627860 8.340996 1.308853
v -3.380085 7.896088 1.692293
v -1.988688 9.053545 2.007884
v -1.196639 9.790684 2.070451
v -0.023254 9.904379 2.137306
v 1.133036 9.050486 1.979872
v 2.297127 8.468884 1.159864
v 3.304418 8.272884 0.830060
v 4.200541 8.272884 0.450803
v 5.053848 7.712935 0.230410
v 5.638878 4.963054 0.000000
v -5.638875 3.952265 0.000000
v -5.346183 2.699388 0.279936
v -4.705229 2.460821 1.228871
v -3.745674 2.332542 1.545985
v -2.705847 2.925077 1.673353
v -1.761128 3.246406 1.739473
v 0.234423 4.483238 1.691091
v 1.174742 4.881556 1.848129
v 2.699511 5.049529 1.377554
v 3.846443 5.766804 0.779534
v 4.666398 6.023765 0.344273
v 5.358195 5.347343 0.470016
v 5.638878 15.671398 0.000000
v 5.390503 15.581223 0.295868
v 4.844885 15.381297 0.594554
v 3.525721 14.877434 0.686192
v 2.860435 15.734925 0.196884
v 0.724668 15.010005 0.965534
v -0.754885 14.360348 1.353825
v -1.468053 15.029378 1.676118
v -2.756721 14.510296 1.335971
v -4.032528 12.807096 1.059565
v -5.170422 11.963246 0.909167
v -5.527965 12.594314 0.536680
v -5.638875 13.416403 -0.000000
v 5.638878 15.995346 0.000000
v 5.446738 15.995346 0.000000
v 4.883411 15.995346 0.000000
v 3.987289 15.995346 0.000000
v 2.819439 15.995346 0.000000
v 1.459450 15.995346 0.000000
v 0.000001 15.995346 0.000000
v -1.459448 15.995346 -0.000000
v -2.819437 15.995346 -0.000000
v -3.987286 15.995346 -0.000000
v -4.883409 15.995346 -0.000000
v -5.446735 15.995346 -0.000000
v -5.638875 15.995346 -0.000000
vt 1.000000 0.974749
vt 1.000000 1.000000
vt 0.958333 1.000000
vt 0.958333 0.918225
vt 0.541667 0.664961
vt 0.541667 0.878512
vt 0.500000 0.878512
vt 0.500000 0.664961
vt 0.916667 1.000000
vt 0.916667 0.918225
vt 1.000000 0.707149
vt 1.000000 0.796420
vt 0.958333 0.796420
vt 0.958333 0.664961
vt 0.875000 1.000000
vt 0.875000 0.918225
vt 0.916667 0.796420
vt 0.916667 0.664961
vt 0.833333 1.000000
vt 0.833333 0.918225
vt 0.875000 0.796420
vt 0.875000 0.664961
vt 0.791667 1.000000
vt 0.791667 0.918225
vt 0.833333 0.796420
vt 0.833333 0.664961
vt 0.750000 1.000000
vt 0.750000 0.918225
vt 0.791667 0.796420
vt 0.791667 0.664961
vt 0.708333 1.000000
vt 0.708333 0.918225
vt 0.750000 0.796420
vt 0.750000 0.664961
vt 0.666667 1.000000
vt 0.666667 0.918225
vt 0.708333 0.796420
vt 0.708333 0.664961
vt 0.625000 1.000000
vt 0.625000 0.918225
vt 0.666667 0.796420
vt 0.666667 0.664961
vt 0.583333 1.000000
vt 0.583333 0.918225
vt 0.625000 0.796420
vt 0.625000 0.664961
vt 0.541666 1.000000
vt 0.541667 0.918225
vt 0.583333 0.796420
vt 0.583333 0.664961
vt 0.500000 1.000000
vt 0.500000 0.918225
vt 1.000000 0.500000
vt 1.000000 0.628892
vt 0.958333 0.628892
vt 0.958333 0.500000
vt 0.916667 0.628892
vt 0.916667 0.500000
vt 0.875000 0.500000
vt 0.875000 0.628892
vt 0.833333 0.628892
vt 0.833333 0.500000
vt 0.791667 0.628892
vt 0.791667 0.500000
vt 0.750000 0.628892
vt 0.750000 0.519357
vt 0.708333 0.628892
vt 0.708333 0.500000
vt 0.666667 0.628892
vt 0.666667 0.500000
vt 0.625000 0.628892
vt 0.625000 0.500000
vt 0.583333 0.628892
vt 0.583333 0.500000
vt 0.541666 0.628892
vt 0.541666 0.500000
vt 0.500000 0.628892
vt 0.500000 0.500000
vt 0.916667 1.000000
vt 0.875000 1.000000
vt 0.541666 1.000000
vt 0.500000 1.000000
vt 0.625000 1.000000
vt 0.583333 1.000000
vt 0.833333 1.000000
vt 0.708333 1.000000
vt 0.666667 1.000000
vt 0.791667 1.000000
vt 1.000000 1.000000
vt 0.958333 1.000000
vt 0.750000 1.000000
vt 0.833333 1.000000
vt 0.791667 1.000000
vt 0.541666 1.000000
vt 0.500000 1.000000
vt 0.958333 1.000000
vt 0.916667 1.000000
vt 0.666667 1.000000
vt 0.625000 1.000000
vt 0.750000 1.000000
vt 0.875000 1.000000
vt 0.583333 1.000000
vt 0.708333 1.000000
vt 1.000000 1.000000
vn 0.9516 -0.0951 0.2924
vn -0.8531 -0.0163 0.5216
vn 0.5500 0.4147 0.7249
vn 0.6838 0.0848 0.7247
vn 0.3428 0.5545 0.7583
vn 0.0968 0.0448 0.9943
vn -0.3324 0.8370 0.4347
vn 0.4208 0.0593 0.9052
vn -0.2426 0.9417 0.2332
vn 0.3765 0.0860 0.9224
vn -0.0352 0.7944 0.6064
vn 0.4369 0.0357 0.8988
vn -0.0597 0.4521 0.8900
vn -0.0130 -0.0606 0.9981
vn 0.1991 0.1333 0.9709
vn 0.0220 -0.0654 0.9976
vn -0.1897 -0.0030 0.9818
vn -0.0448 -0.0479 0.9979
vn -0.2865 -0.0392 0.9573
vn -0.1613 -0.0256 0.9866
vn -0.6075 -0.1945 0.7701
vn -0.3042 -0.0071 0.9526
vn -0.9951 -0.0987 -0.0046
vn -0.7779 -0.0155 0.6282
vn -0.9267 -0.0000 0.3757
vn 0.7260 -0.0730 0.6838
vn 0.9500 0.0112 0.3122
vn 0.3291 -0.2201 0.9183
vn 0.8330 0.0730 0.5484
vn 0.3530 -0.2798 0.8928
vn -0.3679 0.2569 0.8937
vn 0.3359 -0.3027 0.8919
vn -0.0054 0.2622 0.9650
vn 0.2544 -0.2075 0.9446
vn -0.0564 0.2529 0.9658
vn -0.0009 0.2976 0.9547
vn -0.1228 0.1928 0.9735
vn -0.1879 0.7531 0.6305
vn 0.1684 0.0140 0.9856
vn -0.3355 0.4549 0.8249
vn -0.1976 0.0614 0.9784
vn -0.4102 0.2183 0.8855
vn -0.4436 0.1489 0.8838
vn 0.5171 0.1308 0.8459
vn -0.1262 0.3389 0.9323
vn -0.9027 0.0902 0.4207
vn -0.9447 -0.0085 0.3278
vn -0.6724 0.0396 0.7391
vn -0.5898 0.5254 0.6132
vn -0.2984 0.4349 0.8496
vn -0.3758 0.5111 0.7730
vn -0.1266 0.4501 0.8839
vn 0.2565 -0.2595 0.9311
vn -0.1391 -0.4510 0.8816
vn 0.1741 0.0157 0.9846
vn -0.3285 0.3855 0.8623
vn 0.1658 0.7787 0.6051
vn 0.7539 0.2276 0.6163
vn 0.8971 0.0196 0.4414
vn -0.4769 0.2481 0.8432
vn 0.0794 0.0906 0.9927
vn -0.9888 0.0589 0.1368
vn -0.3859 0.2497 0.8881
vn -0.1668 0.1507 0.9744
vn -0.0314 -0.0254 0.9992
vn 0.1391 0.1323 0.9814
vn 0.8970 0.0256 0.4412
vn 0.1465 0.0045 0.9892
vn -0.5975 0.0985 0.7958
vn -0.3372 0.1892 0.9222
vn 0.1830 -0.0812 0.9798
vn 0.4750 0.0685 0.8773
vn 0.0220 0.6755 0.7370
vn -0.8258 0.0615 0.5606
vn 0.0872 0.6476 0.7570
vn -0.3855 0.4198 0.8217
vn -0.0532 0.6787 0.7325
vn -0.1065 0.6109 0.7845
vn -0.1806 0.2665 0.9468
vn 0.3084 0.6820 0.6632
vn 0.0242 0.5341 0.8451
vn -0.2487 0.1968 0.9484
vn 0.4915 0.2915 0.8206
vn -0.2269 0.7534 0.6172
usemtl None
s off
f 38/1/1 4/2/1 6/3/1 52/4/1
f 68/5/2 55/6/2 54/7/2 67/8/2
f 52/4/3 6/3/3 8/9/3 51/10/3
f 66/11/4 53/12/4 65/13/4 78/14/4
f 51/10/5 8/9/5 10/15/5 1/16/5
f 78/14/6 65/13/6 64/17/6 77/18/6
f 1/16/7 10/15/7 12/19/7 2/20/7
f 77/18/8 64/17/8 63/21/8 76/22/8
f 2/20/9 12/19/9 14/23/9 29/24/9
f 76/22/10 63/21/10 62/25/10 75/26/10
f 29/24/11 14/23/11 16/27/11 31/28/11
f 75/26/12 62/25/12 61/29/12 74/30/12
f 31/28/13 16/27/13 18/31/13 32/32/13
f 74/30/14 61/29/14 60/33/14 73/34/14
f 32/32/15 18/31/15 20/35/15 33/36/15
f 73/34/16 60/33/16 59/37/16 72/38/16
f 33/36/17 20/35/17 22/39/17 34/40/17
f 72/38/18 59/37/18 58/41/18 71/42/18
f 34/40/19 22/39/19 24/43/19 35/44/19
f 71/42/20 58/41/20 57/45/20 70/46/20
f 35/44/21 24/43/21 26/47/21 36/48/21
f 70/46/22 57/45/22 56/49/22 69/50/22
f 36/48/23 26/47/23 28/51/23 37/52/23
f 69/50/24 56/49/24 55/6/24 68/5/24
f 55/6/25 36/48/25 37/52/25 54/7/25
f 53/12/26 38/1/26 52/4/26 65/13/26
f 3/53/27 30/54/27 50/55/27 5/56/27
f 65/13/28 52/4/28 51/10/28 64/17/28
f 5/56/29 50/55/29 49/57/29 7/58/29
f 64/17/30 51/10/30 1/16/30 63/21/30
f 9/59/31 48/60/31 47/61/31 11/62/31
f 63/21/32 1/16/32 2/20/32 62/25/32
f 11/62/33 47/61/33 46/63/33 13/64/33
f 62/25/34 2/20/34 29/24/34 61/29/34
f 13/64/35 46/63/35 45/65/35 15/66/35
f 61/29/36 29/24/36 31/28/36 60/33/36
f 15/66/37 45/65/37 44/67/37 17/68/37
f 60/33/38 31/28/38 32/32/38 59/37/38
f 17/68/39 44/67/39 43/69/39 19/70/39
f 59/37/40 32/32/40 33/36/40 58/41/40
f 19/70/41 43/69/41 42/71/41 21/72/41
f 58/41/42 33/36/42 34/40/42 57/45/42
f 21/72/43 42/71/43 41/73/43 23/74/43
f 7/58/44 49/57/44 48/60/44 9/59/44
f 57/45/45 34/40/45 35/44/45 56/49/45
f 23/74/46 41/73/46 40/75/46 25/76/46
f 25/76/47 40/75/47 39/77/47 27/78/47
f 56/49/48 35/44/48 36/48/48 55/6/48
f 41/73/49 69/50/49 68/5/49 40/75/49
f 42/71/50 70/46/50 69/50/50 41/73/50
f 43/69/51 71/42/51 70/46/51 42/71/51
f 44/67/52 72/38/52 71/42/52 43/69/52
f 45/65/53 73/34/53 72/38/53 44/67/53
f 46/63/54 74/30/54 73/34/54 45/65/54
f 47/61/55 75/26/55 74/30/55 46/63/55
f 48/60/56 76/22/56 75/26/56 47/61/56
f 49/57/57 77/18/57 76/22/57 48/60/57
f 50/55/58 78/14/58 77/18/58 49/57/58
f 30/54/59 66/11/59 78/14/59 50/55/59
f 40/75/60 68/5/60 67/8/60 39/77/60
f 10/15/61 8/9/61 81/79/61 82/80/61
f 28/51/62 26/47/62 90/81/62 91/82/62
f 24/43/63 22/39/63 88/83/63 89/84/63
f 12/19/64 10/15/64 82/80/64 83/85/64
f 20/35/65 18/31/65 86/86/65 87/87/65
f 14/23/66 12/19/66 83/85/66 84/88/66
f 6/3/67 4/2/67 79/89/67 80/90/67
f 16/27/68 14/23/68 84/88/68 85/91/68
f 26/47/69 24/43/69 89/84/69 90/81/69
f 22/39/70 20/35/70 87/87/70 88/83/70
f 18/31/71 16/27/71 85/91/71 86/86/71
f 8/9/72 6/3/72 80/90/72 81/79/72
f 84/88/73 83/85/73 96/92/73 97/93/73
f 91/82/74 90/81/74 103/94/74 104/95/74
f 81/79/75 80/90/75 93/96/75 94/97/75
f 88/83/76 87/87/76 100/98/76 101/99/76
f 85/91/77 84/88/77 97/93/77 98/100/77
f 82/80/78 81/79/78 94/97/78 95/101/78
f 89/84/79 88/83/79 101/99/79 102/102/79
f 86/86/80 85/91/80 98/100/80 99/103/80
f 83/85/81 82/80/81 95/101/81 96/92/81
f 90/81/82 89/84/82 102/102/82 103/94/82
f 80/90/83 79/89/83 92/104/83 93/96/83
f 87/87/84 86/86/84 99/103/84 100/98/84
